<?xml version="1.0"?>
<svg xmlns:rdf="http://www.w3.org/1999/02/22-rdf-syntax-ns#" xmlns="http://www.w3.org/2000/svg" xmlns:cc="http://creativecommons.org/ns#" xmlns:dc="http://purl.org/dc/elements/1.1/" xmlns:svg="http://www.w3.org/2000/svg" id="svg2" viewBox="0 0 281.68 301.97" version="1.1">
  <g id="layer1" transform="translate(460.91 -393.14)">
    <path id="path2830" stroke="#000" stroke-width=".92883px" d="m-309.56 542.62c13.778 13.857 29.187 25.818 43.194 39.498 10.786 10.534 23.725 23.612 33.199 30.824 9.4734 7.2111 15.242 10.053 24.564 8.8541 8.6603-1.1133 17.041-2.5328 25.276-5.5987 5.9963-2.2325-0.15408-7.0246-3.3961-8.8123-21.165-11.671-42.705-23.67-61.97-38.388-12.387-9.4639-23.786-20.184-33.871-32.181-5.1306-6.1037-13.358-11.794-8.7512-15.758 17.775-15.293 48.963-27.548 75.611-42.646 6.5052-3.6857 13.129-9.603 12.96-18.355-0.10656-5.5323-2.1423-9.1118-5.168-13.411-3.4355-4.8815-9.096-7.4753-14.072-7.5242-5.1688-0.0507-9.3013 1.0346-14.186 8.1721-4.8848 7.1375-11.967 18.943-21.814 25.257-13.942 8.94-27.27 19.621-41.914 27.253-5.7742 3.0095-8.2067-2.2199-8.0346-7.5816 0.7122-22.191-0.25454-44.651-2.4672-66.796-1.007-10.079-4.5738-20.141-10.438-27.77-4.8527-6.3129-15.062-3.8385-22.702-1.8994-4.783 1.2139-9.2732 3.6894-7.033 9.3102 5.2363 13.139 9.6343 26.954 12.302 40.918 1.9862 10.395 4.9707 21.439 3.464 31.69-0.89195 6.0686-9.3491 6.5119-14.405 8.9413-26.464 12.714-53.819 23.71-81.225 34.393-9.624 3.7515-21.721 5.9607-27.762 14.813-2.8498 4.1761-0.56034 10.172 1.1202 14.466 2.3594 6.0287 6.7062 10.953 12.641 14.268 6.06 3.3842 11.932-2.1378 16.804-5.2055 16.617-10.463 33.082-21.369 50.463-30.455 7.983-4.1733 16.134-8.1042 24.487-11.486-7.2879 12.357-14.245 25.176-23.163 36.38-16.221 20.378-33.81 39.688-52.052 58.353-10.053 10.285-28.387 22.324-28.615 32.318-0.11476 5.032 13.526-0.81761 19.635-3.7041 10.716-5.0629 21.083-10.876 30.083-18.842 10.946-9.6878 21.326-20.166 30.905-31.168 12.732-14.623 23.016-31.587 37.212-44.845 6.5014-0.0744 1.8464 19.812 2.1284 27.361 0.8517 22.798 4.7797 50.62-2.2013 68.876-2.3059 6.0304-20.461-2.585-22.889 4.6442-2.4642 7.3354 8.748 14.192 13.942 20.412 7.8264 9.3721 16.215 18.782 25.644 26.311 5.2799 4.2162 7.5641-4.2708 8.3613-8.5772 2.8299-15.287 6.0491-30.743 6.5727-46.255 1.0328-30.598-0.5068-61.274-2.2529-91.874-0.062-1.3931-0.12383-2.7862-0.18574-4.1793z"/>
  </g>
  <metadata>
    <rdf:RDF>
      <cc:Work>
        <dc:format>image/svg+xml</dc:format>
        <dc:type rdf:resource="http://purl.org/dc/dcmitype/StillImage"/>
        <cc:license rdf:resource="http://creativecommons.org/licenses/publicdomain/"/>
        <dc:publisher>
          <cc:Agent rdf:about="http://openclipart.org/">
            <dc:title>Openclipart</dc:title>
          </cc:Agent>
        </dc:publisher>
        <dc:title>Symbol of Confucianism</dc:title>
        <dc:date>2010-06-01T22:54:29</dc:date>
        <dc:description>Confucianism symbol.</dc:description>
        <dc:source>http://openclipart.org/detail/64009/symbol-of-confucianism-by-laobc</dc:source>
        <dc:creator>
          <cc:Agent>
            <dc:title>laobc</dc:title>
          </cc:Agent>
        </dc:creator>
        <dc:subject>
          <rdf:Bag>
            <rdf:li>black and white</rdf:li>
            <rdf:li>china</rdf:li>
            <rdf:li>chinese</rdf:li>
            <rdf:li>clip art</rdf:li>
            <rdf:li>clipart</rdf:li>
            <rdf:li>religion</rdf:li>
            <rdf:li>silhouette</rdf:li>
            <rdf:li>symbol</rdf:li>
          </rdf:Bag>
        </dc:subject>
      </cc:Work>
      <cc:License rdf:about="http://creativecommons.org/licenses/publicdomain/">
        <cc:permits rdf:resource="http://creativecommons.org/ns#Reproduction"/>
        <cc:permits rdf:resource="http://creativecommons.org/ns#Distribution"/>
        <cc:permits rdf:resource="http://creativecommons.org/ns#DerivativeWorks"/>
      </cc:License>
    </rdf:RDF>
  </metadata>
</svg>
